<?xml version="1.0" encoding="UTF-8"?>
<svg id="Layer_1" xmlns="http://www.w3.org/2000/svg" version="1.1" viewBox="0 0 599.25 159.77">
  <!-- Generator: Adobe Illustrator 30.1.0, SVG Export Plug-In . SVG Version: 2.1.1 Build 136)  -->
  <defs>
    <style>
      .st0, .st1, .st2, .st3, .st4, .st5, .st6 {
        stroke: #eee;
      }

      .st0, .st2, .st3, .st4, .st5, .st6 {
        fill: none;
      }

      .st0, .st2, .st7, .st5, .st8, .st6, .st9 {
        isolation: isolate;
      }

      .st0, .st2, .st5, .st8, .st6, .st9 {
        font-family: Galvji, Galvji;
      }

      .st0, .st5, .st9 {
        font-size: 35.95px;
      }

      .st0, .st6 {
        stroke-miterlimit: 10;
      }

      .st1, .st2, .st3, .st4, .st5 {
        stroke-linecap: round;
        stroke-linejoin: round;
      }

      .st1, .st5 {
        stroke-width: 2px;
      }

      .st1, .st8, .st9, .st10 {
        fill: #eee;
      }

      .st2 {
        stroke-width: 5px;
      }

      .st2, .st8, .st6 {
        font-size: 87.16px;
      }

      .st3 {
        stroke-width: 12px;
      }

      .st4 {
        stroke-width: 10px;
      }
    </style>
  </defs>
  <path class="st10" d="M34.87,65.47c-.3-.13-1.01-1.06-1.06-1.36-.08-.4.54-1.47,1.06-1.69l23.67-9.84c3.71-1.54,7.26-1.54,10.92,0l23.85,10.07.91,1.31c.26.36-.53,1.5-1.09,1.74l-23.73,9.82c-3.28,1.35-6.89,1.62-10.17.23l-24.36-10.3h0v.02ZM68.97,64.79c.39-3.16-1.98-5.49-4.68-5.58-2.54-.08-4.81,1.77-5.11,4.33-.3,2.56,1.54,5.22,4.29,5.54,2.45.28,5.13-1.3,5.51-4.29h-.01Z"/>
  <path class="st4" d="M87.76,42.27h9.99c-7.14-11-19.52-18.29-33.61-18.29-22.11,0-40.04,17.93-40.04,40.04s17.93,40.04,40.04,40.04c14.09,0,26.47-7.29,33.61-18.29h-9.99"/>
  <g class="st7">
    <g class="st7">
      <g class="st7">
        <g class="st7">
          <g class="st7">
            <text class="st8" transform="translate(172.96 97.51) scale(1.13 1)"><tspan x="0" y="0" xml:space="preserve">  ell   art</tspan></text>
          </g>
          <g class="st7">
            <text class="st6" transform="translate(172.96 97.51) scale(1.13 1)"><tspan x="0" y="0" xml:space="preserve">  ell   art</tspan></text>
          </g>
        </g>
        <g class="st7">
          <g class="st7">
            <text class="st8" transform="translate(172.96 97.51) scale(1.13 1)"><tspan x="0" y="0" xml:space="preserve">  ell   art</tspan></text>
          </g>
          <g class="st7">
            <text class="st6" transform="translate(172.96 97.51) scale(1.13 1)"><tspan x="0" y="0" xml:space="preserve">  ell   art</tspan></text>
          </g>
        </g>
      </g>
    </g>
    <g class="st7">
      <g class="st7">
        <g class="st7">
          <g class="st7">
            <text class="st8" transform="translate(172.96 97.51) scale(1.13 1)"><tspan x="0" y="0" xml:space="preserve">  ell   art</tspan></text>
          </g>
          <g class="st7">
            <text class="st6" transform="translate(172.96 97.51) scale(1.13 1)"><tspan x="0" y="0" xml:space="preserve">  ell   art</tspan></text>
          </g>
        </g>
        <g class="st7">
          <g class="st7">
            <text class="st8" transform="translate(172.96 97.51) scale(1.13 1)"><tspan x="0" y="0" xml:space="preserve">  ell   art</tspan></text>
          </g>
          <g class="st7">
            <text class="st2" transform="translate(172.96 97.51) scale(1.13 1)"><tspan x="0" y="0" xml:space="preserve">  ell   art</tspan></text>
          </g>
        </g>
      </g>
    </g>
  </g>
  <path class="st4" d="M126.27,42.27h-7.37c-8.66-21.83-29.96-37.27-54.87-37.27C31.43,5,5,31.43,5,64.03s26.43,59.03,59.03,59.03c24.91,0,46.21-15.44,54.87-37.27h7.37"/>
  <path class="st3" d="M394.08,46.81h7.8c-5.57-8.59-15.24-14.28-26.24-14.28-17.27,0-31.26,14-31.26,31.26s14,31.26,31.26,31.26c11,0,20.67-5.69,26.24-14.28h-7.8"/>
  <path class="st3" d="M212.72,52.72h-3.86c-4.54-11.44-15.7-19.53-28.75-19.53-17.08,0-30.93,13.85-30.93,30.93s13.85,30.93,30.93,30.93c13.06,0,24.22-8.09,28.75-19.53h3.86"/>
  <g class="st7">
    <g class="st7">
      <g class="st7">
        <g class="st7">
          <g class="st7">
            <text class="st9" transform="translate(171.42 144.97) scale(1.13 1)"><tspan x="0" y="0">cellular cartography</tspan></text>
          </g>
          <g class="st7">
            <text class="st0" transform="translate(171.42 144.97) scale(1.13 1)"><tspan x="0" y="0">cellular cartography</tspan></text>
          </g>
        </g>
        <g class="st7">
          <g class="st7">
            <text class="st9" transform="translate(171.42 144.97) scale(1.13 1)"><tspan x="0" y="0">cellular cartography</tspan></text>
          </g>
          <g class="st7">
            <text class="st0" transform="translate(171.42 144.97) scale(1.13 1)"><tspan x="0" y="0">cellular cartography</tspan></text>
          </g>
        </g>
      </g>
    </g>
    <g class="st7">
      <g class="st7">
        <g class="st7">
          <g class="st7">
            <text class="st9" transform="translate(171.42 144.97) scale(1.13 1)"><tspan x="0" y="0">cellular cartography</tspan></text>
          </g>
          <g class="st7">
            <text class="st0" transform="translate(171.42 144.97) scale(1.13 1)"><tspan x="0" y="0">cellular cartography</tspan></text>
          </g>
        </g>
        <g class="st7">
          <g class="st7">
            <text class="st9" transform="translate(171.42 144.97) scale(1.13 1)"><tspan x="0" y="0">cellular cartography</tspan></text>
          </g>
          <g class="st7">
            <text class="st5" transform="translate(171.42 144.97) scale(1.13 1)"><tspan x="0" y="0">cellular cartography</tspan></text>
          </g>
        </g>
      </g>
    </g>
  </g>
  <circle class="st10" cx="108.43" cy="64.02" r="10.69"/>
  <circle class="st3" cx="572.14" cy="74.12" r="21.11"/>
  <path class="st1" d="M104.41,104.07l10.67,10.68c1.87-1.91,4.89-1.92,6.76,0l31.15,31.15v1.31l-11.48,11.56h-2.47l-30.52-30.59c-1.91-1.91-2.04-4.88-.05-6.82l-10.73-10.72"/>
</svg>